HIERARCHY
ROOT Hips
{
    OFFSET   0.000000   0.000000   0.000000
    CHANNELS 6 Xposition Yposition Zposition Zrotation Xrotation Yrotation
    JOINT Chest
    {
        OFFSET   0.000000   8.007230   0.000000
        CHANNELS 3 Zrotation Xrotation Yrotation
        JOINT Chest2
        {
            OFFSET   0.000000  22.077100   0.000000
            CHANNELS 3 Zrotation Xrotation Yrotation
            JOINT Neck
            {
                OFFSET   0.000000  23.255100   0.000000
                CHANNELS 3 Zrotation Xrotation Yrotation
                JOINT Head
                {
                    OFFSET   0.000000  14.370100   1.956600
                    CHANNELS 3 Zrotation Xrotation Yrotation
                    End Site
                    {
                        OFFSET   0.000000  19.566000   0.000000
                    }
                }
            }
            JOINT LeftCollar
            {
                OFFSET   3.911900  19.017000  -0.467063
                CHANNELS 3 Zrotation Xrotation Yrotation
                JOINT LeftShoulder
                {
                    OFFSET  10.383700   0.000000   0.000000
                    CHANNELS 3 Zrotation Xrotation Yrotation
                    JOINT LeftElbow
                    {
                        OFFSET  26.662100   0.001193   0.000980
                        CHANNELS 3 Zrotation Xrotation Yrotation
                        JOINT LeftWrist
                        {
                            OFFSET  28.869000  -0.000059  -0.000082
                            CHANNELS 3 Zrotation Xrotation Yrotation
                            JOINT LeftFinger0
                            {
                                OFFSET   2.044650  -2.323450   3.252850
                                CHANNELS 3 Zrotation Xrotation Yrotation
                                JOINT LeftFinger01
                                {
                                    OFFSET   3.088130   0.000000   0.000000
                                    CHANNELS 3 Zrotation Xrotation Yrotation
                                    JOINT LeftFinger02
                                    {
                                        OFFSET   2.639460   0.000000   0.000000
                                        CHANNELS 3 Zrotation Xrotation Yrotation
                                        End Site
                                        {
                                            OFFSET   2.582190   0.000000   0.000000
                                        }
                                    }
                                }
                            }
                            JOINT LeftFinger1
                            {
                                OFFSET   8.364480   0.000000   3.252850
                                CHANNELS 3 Zrotation Xrotation Yrotation
                                JOINT LeftFinger11
                                {
                                    OFFSET   4.646930   0.000000   0.000000
                                    CHANNELS 3 Zrotation Xrotation Yrotation
                                    JOINT LeftFinger12
                                    {
                                        OFFSET   2.323470   0.000000   0.000000
                                        CHANNELS 3 Zrotation Xrotation Yrotation
                                        End Site
                                        {
                                            OFFSET   2.273050   0.000000   0.000000
                                        }
                                    }
                                }
                            }
                            JOINT LeftFinger2
                            {
                                OFFSET   8.364490   0.000016   1.078090
                                CHANNELS 3 Zrotation Xrotation Yrotation
                                JOINT LeftFinger21
                                {
                                    OFFSET   5.111610   0.000000   0.000000
                                    CHANNELS 3 Zrotation Xrotation Yrotation
                                    JOINT LeftFinger22
                                    {
                                        OFFSET   2.788150   0.000016   0.000000
                                        CHANNELS 3 Zrotation Xrotation Yrotation
                                        End Site
                                        {
                                            OFFSET   2.727660   0.000000   0.000000
                                        }
                                    }
                                }
                            }
                            JOINT LeftFinger3
                            {
                                OFFSET   7.899780   0.000015  -1.078090
                                CHANNELS 3 Zrotation Xrotation Yrotation
                                JOINT LeftFinger31
                                {
                                    OFFSET   4.646930   0.000000   0.000000
                                    CHANNELS 3 Zrotation Xrotation Yrotation
                                    JOINT LeftFinger32
                                    {
                                        OFFSET   2.323470   0.000000   0.000000
                                        CHANNELS 3 Zrotation Xrotation Yrotation
                                        End Site
                                        {
                                            OFFSET   2.273050   0.000000   0.000000
                                        }
                                    }
                                }
                            }
                            JOINT LeftFinger4
                            {
                                OFFSET   7.435090   0.000000  -3.252850
                                CHANNELS 3 Zrotation Xrotation Yrotation
                                JOINT LeftFinger41
                                {
                                    OFFSET   3.717550   0.000000   0.000000
                                    CHANNELS 3 Zrotation Xrotation Yrotation
                                    JOINT LeftFinger42
                                    {
                                        OFFSET   1.858770   0.000000   0.000000
                                        CHANNELS 3 Zrotation Xrotation Yrotation
                                        End Site
                                        {
                                            OFFSET   1.818440   0.000000   0.000000
                                        }
                                    }
                                }
                            }
                        }
                    }
                }
            }
            JOINT RightCollar
            {
                OFFSET  -3.911910  19.017000  -0.467062
                CHANNELS 3 Zrotation Xrotation Yrotation
                JOINT RightShoulder
                {
                    OFFSET -10.383700   0.000014   0.000000
                    CHANNELS 3 Zrotation Xrotation Yrotation
                    JOINT RightElbow
                    {
                        OFFSET -26.662100   0.001225   0.001091
                        CHANNELS 3 Zrotation Xrotation Yrotation
                        JOINT RightWrist
                        {
                            OFFSET -28.869000  -0.000020  -0.000085
                            CHANNELS 3 Zrotation Xrotation Yrotation
                            JOINT RightFinger0
                            {
                                OFFSET  -2.044650  -2.323490   3.252850
                                CHANNELS 3 Zrotation Xrotation Yrotation
                                JOINT RightFinger01
                                {
                                    OFFSET  -3.088130   0.000000   0.000000
                                    CHANNELS 3 Zrotation Xrotation Yrotation
                                    JOINT RightFinger02
                                    {
                                        OFFSET  -2.639460   0.000000   0.000000
                                        CHANNELS 3 Zrotation Xrotation Yrotation
                                        End Site
                                        {
                                            OFFSET  -2.582190   0.000000   0.000000
                                        }
                                    }
                                }
                            }
                            JOINT RightFinger1
                            {
                                OFFSET  -8.364480   0.000000   3.252850
                                CHANNELS 3 Zrotation Xrotation Yrotation
                                JOINT RightFinger11
                                {
                                    OFFSET  -4.646930   0.000000   0.000000
                                    CHANNELS 3 Zrotation Xrotation Yrotation
                                    JOINT RightFinger12
                                    {
                                        OFFSET  -2.323470   0.000000   0.000000
                                        CHANNELS 3 Zrotation Xrotation Yrotation
                                        End Site
                                        {
                                            OFFSET  -2.273050   0.000000   0.000000
                                        }
                                    }
                                }
                            }
                            JOINT RightFinger2
                            {
                                OFFSET  -8.364480   0.000000   1.078090
                                CHANNELS 3 Zrotation Xrotation Yrotation
                                JOINT RightFinger21
                                {
                                    OFFSET  -5.111620   0.000000   0.000000
                                    CHANNELS 3 Zrotation Xrotation Yrotation
                                    JOINT RightFinger22
                                    {
                                        OFFSET  -2.788160   0.000000   0.000000
                                        CHANNELS 3 Zrotation Xrotation Yrotation
                                        End Site
                                        {
                                            OFFSET  -2.727660   0.000000   0.000000
                                        }
                                    }
                                }
                            }
                            JOINT RightFinger3
                            {
                                OFFSET  -7.899780   0.000000  -1.078090
                                CHANNELS 3 Zrotation Xrotation Yrotation
                                JOINT RightFinger31
                                {
                                    OFFSET  -4.646930   0.000000   0.000000
                                    CHANNELS 3 Zrotation Xrotation Yrotation
                                    JOINT RightFinger32
                                    {
                                        OFFSET  -2.323470   0.000000   0.000000
                                        CHANNELS 3 Zrotation Xrotation Yrotation
                                        End Site
                                        {
                                            OFFSET  -2.273050   0.000000   0.000000
                                        }
                                    }
                                }
                            }
                            JOINT RightFinger4
                            {
                                OFFSET  -7.435090   0.000000  -3.252850
                                CHANNELS 3 Zrotation Xrotation Yrotation
                                JOINT RightFinger41
                                {
                                    OFFSET  -3.717550   0.000000   0.000000
                                    CHANNELS 3 Zrotation Xrotation Yrotation
                                    JOINT RightFinger42
                                    {
                                        OFFSET  -1.858760   0.000000   0.000000
                                        CHANNELS 3 Zrotation Xrotation Yrotation
                                        End Site
                                        {
                                            OFFSET  -1.818440   0.000000   0.000000
                                        }
                                    }
                                }
                            }
                        }
                    }
                }
            }
        }
    }
    JOINT LeftHip
    {
        OFFSET   9.783030   0.000000   0.000000
        CHANNELS 3 Zrotation Xrotation Yrotation
        JOINT LeftKnee
        {
            OFFSET   0.000063 -41.789100   0.000608
            CHANNELS 3 Zrotation Xrotation Yrotation
            JOINT LeftAnkle
            {
                OFFSET   0.000048 -41.133200  -0.000184
                CHANNELS 3 Zrotation Xrotation Yrotation
                JOINT LeftToe
                {
                    OFFSET   0.000000  -6.358960  14.674500
                    CHANNELS 3 Zrotation Xrotation Yrotation
                    End Site
                    {
                        OFFSET   0.000000   0.000000   3.913200
                    }
                }
            }
        }
    }
    JOINT RightHip
    {
        OFFSET  -9.783030   0.000000   0.000000
        CHANNELS 3 Zrotation Xrotation Yrotation
        JOINT RightKnee
        {
            OFFSET   0.000071 -41.789100   0.001239
            CHANNELS 3 Zrotation Xrotation Yrotation
            JOINT RightAnkle
            {
                OFFSET   0.000037 -41.133200  -0.000166
                CHANNELS 3 Zrotation Xrotation Yrotation
                JOINT RightToe
                {
                    OFFSET   0.000000  -6.358960  14.674500
                    CHANNELS 3 Zrotation Xrotation Yrotation
                    End Site
                    {
                        OFFSET   0.000000   0.000000   3.913200
                    }
                }
            }
        }
    }
}
MOTION
Frames: 5
Frame Time:   0.016667
  2.810730  89.421500  -0.243617  -3.663990 -18.292100   1.520180  -2.265890  11.164500   6.594110  -6.023000  21.971800  14.043300   1.538260   0.138364  -0.004023   2.527210   0.280081   5.320050  -7.412340  -9.850530  -0.230974 -63.864600  22.836200  -6.508320  -0.590787  -5.309320 -15.753100  16.892700 -10.023600   8.296570  36.605800  28.332700 -52.377400 -33.923400   0.000365   0.003135 -11.961700   0.000892  -0.003426 -33.946200   6.540110  -9.603710 -28.224100   0.008456  -0.001338 -19.756800   0.000746  -0.009888 -28.701600  -1.997230   3.641660 -40.834500   0.000000  -0.002666 -27.195800   0.004606  -0.004248 -28.761600  -2.000850   3.639700 -43.242100   0.001248  -0.002655 -28.799200   0.007008  -0.011144 -33.183900  -2.275700   3.474630 -49.879200   0.001438   0.000259 -33.219600   0.001783  -0.008964   2.050890  -5.335960   7.758590  13.314100   1.260600  65.664400 -29.716200   0.561522  37.543200 -28.278700  -8.938860   7.297630 -46.752100  39.899800  69.040500  28.280300  -0.001751   0.000997   9.140150  -0.000813  -0.003166  23.850600   7.000340  15.392600  20.287400   0.000845   0.000777  14.201200   0.000000  -0.002608  30.084400  -0.076539  -0.125099  45.126000  -0.000728  -0.001421  30.054000   0.000711  -0.000371  28.157100  -0.070268  -0.126884  33.067000  -0.002917  -0.012405  22.022700  -0.000932  -0.003952  30.693100  -0.941937  -1.609050  46.057400  -0.001324   0.002017  30.674200   0.001508  -0.003027   3.275370  21.249900   4.721230   0.650582   0.124241   1.981540  -0.519868  -4.360150   1.127040   0.000000   0.000000   0.000000   2.595810  18.473800  -2.653260  -1.531810   5.615040  -9.365100   1.235160  -5.400240  -2.252890  -0.000000   0.000000   0.000000
  2.820730  89.424800  -0.229998  -3.737170 -18.189200   1.290830  -2.214110  11.120900   6.495010  -5.889780  21.897900  13.824000   1.518320   0.072605  -0.002495   2.497720   0.147153   5.340900  -7.455330  -9.786490  -0.191307 -63.943700  22.694100  -6.423010  -0.602534  -5.221780 -15.777100  16.876200 -10.044100   8.299620  36.618100  28.372000 -52.370200 -33.929500   0.000383   0.003013 -11.966000   0.000873  -0.003404 -33.933800   6.525130  -9.586890 -28.211500   0.008458  -0.001316 -19.748100   0.000737  -0.009887 -28.700400  -2.005840   3.657520 -40.809400   0.000000  -0.002621 -27.179100   0.004550  -0.004256 -28.749900  -2.008360   3.655920 -43.223500   0.001207  -0.002610 -28.786900   0.007017  -0.011119 -33.167500  -2.283960   3.490320 -49.855900   0.001386   0.000254 -33.204100   0.001733  -0.008984   2.189880  -5.266500   7.846150  13.630000   2.316200  65.276700 -29.906700   1.091640  38.116100 -26.603800  -9.001440   7.433610 -46.157200  39.288900  68.040200  28.384200  -0.001962   0.001224   9.192120  -0.000801  -0.003042  24.572300   7.325480  15.542300  20.918700   0.000846   0.000680  14.643100   0.000300  -0.003597  30.698000  -0.075448  -0.127028  46.033200  -0.001055   0.000236  30.658200   0.000681  -0.000901  28.335700  -0.069206  -0.130318  34.544200  -0.003085  -0.005524  23.006500  -0.000982  -0.000739  31.617700  -0.721043  -1.218680  47.429400  -0.001218   0.001972  31.588000   0.001236  -0.003903   3.263140  21.179100   4.724110   0.638452   0.122765   2.104660  -0.506552  -4.397830   1.225690   0.000000   0.000000   0.000000   2.548260  18.397900  -2.633320  -1.505550   5.522790  -9.250850   1.242760  -5.344230  -2.152570   0.000000   0.000000   0.000000
  2.826620  89.428500  -0.216691  -3.813750 -18.095100   1.047470  -2.154400  11.080900   6.392330  -5.740390  21.832100  13.596300   1.477340   0.017749  -0.001132   2.426890   0.036246   5.361780  -7.495980  -9.723080  -0.137397 -64.055300  22.588800  -6.369350  -0.612557  -5.177370 -15.779700  16.855000 -10.055800   8.308320  36.638600  28.416900 -52.384500 -33.934100   0.000396   0.002892 -11.969300   0.000854  -0.003382 -33.918300   6.519320  -9.583810 -28.199000   0.008458  -0.001293 -19.739300   0.000730  -0.009886 -28.700200  -2.007080   3.659880 -40.784300   0.000000  -0.002577 -27.162300   0.004493  -0.004265 -28.739100  -2.009430   3.658610 -43.204900   0.001166  -0.002567 -28.774500   0.007027  -0.011095 -33.152100  -2.285140   3.493180 -49.832700   0.001334   0.000248 -33.188600   0.001685  -0.009004   2.341840  -5.191280   7.947360  13.888500   3.473070  64.912200 -29.956000   1.656470  38.615200 -24.795000  -9.063470   7.591610 -45.515400  38.540400  66.975200  28.438800  -0.002208   0.001414   9.219410  -0.000790  -0.002937  25.307800   7.699500  15.778400  21.574100   0.000847   0.000000  15.101900   0.000549  -0.004591  31.103800  -0.067814  -0.127304  46.651700  -0.001375   0.001894  31.070100   0.000558  -0.001468  28.480500  -0.061774  -0.130809  35.817700  -0.003275   0.001357  23.854600  -0.001112   0.001474  32.500700  -0.472956  -0.786793  48.746200  -0.001163   0.001656  32.465000   0.000227  -0.004692   3.253350  21.140300   4.731770   0.621804   0.112487   2.234020  -0.489413  -4.413900   1.327050  -0.000000   0.000000   0.000000   2.512830  18.335200  -2.603470  -1.481150   5.421900  -9.144740   1.247240  -5.284290  -2.043730  -0.000000   0.000000   0.000000
  2.826140  89.434300  -0.207001  -3.899500 -18.007000   0.786734  -2.085640  11.044600   6.305260  -5.576390  21.773500  13.399600   1.425720  -0.028112   0.000345   2.342180  -0.056687   5.330230  -7.526360  -9.670730  -0.122250 -64.198400  22.575300  -6.342850  -0.614474  -5.182050 -15.724800  16.854400 -10.046200   8.328990  36.632500  28.427500 -52.412000 -33.947700   0.000403   0.002761 -11.975000   0.000831  -0.003353 -33.924500   6.524020  -9.588240 -28.204800   0.008459  -0.001263 -19.743300   0.000722  -0.009884 -28.700400  -2.005150   3.656350 -40.803300   0.000000  -0.002537 -27.175000   0.004438  -0.004276 -28.740800  -2.007550   3.655040 -43.207500   0.001124  -0.002527 -28.776200   0.007036  -0.011070 -33.156200  -2.283040   3.489730 -49.839000   0.001284   0.000242 -33.192800   0.001638  -0.009032   2.548310  -5.183440   8.052180  14.057800   4.745680  64.512200 -30.016400   2.253020  39.025800 -22.377900  -8.959470   8.129880 -44.932600  37.750900  65.775500  28.351800  -0.002462   0.001513   9.175910  -0.000792  -0.002848  25.560500   8.056280  16.276400  21.860900   0.000847  -0.004234  15.302600   0.000723  -0.005584  31.109700  -0.008394  -0.006315  46.675300  -0.001682  -0.005807  31.085800  -0.003126  -0.002056  28.563500  -0.013490  -0.001247  36.300100  -0.003527  -0.014779  24.175900  -0.005698  -0.008268  32.910200  -0.184574  -0.280068  49.373600  -0.002363  -0.004002  32.882800  -0.002870  -0.005407   3.248280  21.133000   4.759660   0.601925   0.028624   2.358040  -0.471482  -4.396700   1.430060  -0.000000   0.000000  -0.000000   2.495740  18.277500  -2.543670  -1.466330   5.320500  -9.068770   1.251310  -5.220890  -1.923330  -0.000000   0.000000   0.000000
  2.822740  89.440000  -0.197035  -3.989200 -17.925800   0.517607  -2.011350  11.010300   6.223200  -5.402480  21.719100  13.212500   1.369950  -0.065925   0.001630   2.250620  -0.133385   5.267880  -7.555960  -9.622330  -0.116778 -64.352400  22.573700  -6.330890  -0.613971  -5.204300 -15.647200  16.852000 -10.031700   8.343670  36.626300  28.428800 -52.454600 -33.957100   0.000406   0.002628 -11.978600   0.000809  -0.003326 -33.935500   6.544360  -9.613380 -28.216500   0.008462  -0.001235 -19.751500   0.000712  -0.009881 -28.701900  -1.991650   3.631610 -40.835400   0.000000  -0.002498 -27.196400   0.004383  -0.004288 -28.747500  -1.994390   3.630050 -43.216700   0.001083  -0.002487 -28.782300   0.007046  -0.011045 -33.167500  -2.268340   3.465600 -49.854800   0.001234   0.000236 -33.203300   0.001593  -0.009060   2.767990  -5.181270   8.148500  14.264300   6.159660  64.072500 -29.973700   2.623080  39.367400 -19.772300  -8.704620   8.769160 -44.592800  36.946100  64.543000  28.147900  -0.002731   0.001583   9.073980  -0.000795  -0.002805  25.741800   8.277300  16.622300  22.058800   0.000847  -0.010248  15.441100   0.000850  -0.006519  31.115400   0.044482   0.114675  46.699000  -0.001977  -0.017099  31.101500  -0.008563  -0.002642  28.592000   0.028423   0.128314  36.793600  -0.003796  -0.038915  24.504600  -0.013010  -0.022507  33.143000  -0.012392   0.022693  49.740700  -0.004841  -0.013921  33.127300  -0.007801  -0.005951   3.247170  21.125700   4.785700   0.580766  -0.046426   2.483150  -0.454400  -4.379490   1.538480   0.000000   0.000000  -0.000000   2.484550  18.226800  -2.482090  -1.459090   5.219360  -8.995470   1.254860  -5.158160  -1.797370  -0.000000   0.000000   0.000000
